:SAMPLES-PER-SECOND 30
:FULLY-SPECIFIED
:DEGREES
58
root  -2.33431 40.8759 -0.261288 177.127 -64.6307 -177.358
RightUpLeg  0.356616 0.913801 1.21073
RightLeg  0.461802 2.44314 0.120322
RightFoot  -0.0615416 -0.294104 2.97111
RightToes  -3.13006e-008 1.75238e-005 3.56266e-009
Spine  -8.15248 -3.80882 6.92366
Spine1  9.94082 -3.04304 -6.57648
HEad  7.10194 -1.80586 -17.5255
LeftShoulder1  2.28855 -8.19621 -12.5734
LeftArm  -18.6608 -54.6097 -53.8312
LeftForeArm  29.2128 -64.274 -20.8741
LeftHand  -0.00968693 -2.82237 0.3598
RightShoulder  1.79337 6.337 10.8507
RightArm  -27.7827 53.9601 30.2337
RightForeArm  30.3223 68.3536 26.2163
RightHand  -0.519555 6.31535 -5.48843
LeftUpLeg  6.1873 5.07306 5.38254
LeftLeg  0.203959 33.3944 -1.93594
LeftFoot  -2.76835 0.52364 -6.76177
LeftToes  4.76866e-008 1.46233e-008 1.30548e-009
59
root  -2.35567 40.8994 -0.283148 178.091 -64.9532 -177.588
RightUpLeg  -0.221201 0.938565 1.0556
RightLeg  0.0788536 2.15047 0.147662
RightFoot  0.170389 -0.302419 3.06667
RightToes  -3.13006e-008 1.75238e-005 3.56266e-009
Spine  -14.6659 -2.57545 5.4578
Spine1  18.1856 -2.23545 -4.34704
HEad  5.5852 -4.3953 -17.7056
LeftShoulder1  1.98087 -8.21788 -9.50392
LeftArm  -30.3878 -59.8751 -44.0599
LeftForeArm  28.606 -64.6146 -21.3562
LeftHand  0.038892 -3.20582 -0.298027
RightShoulder  0.938519 3.89816 4.9667
RightArm  -43.6634 55.0535 20.8734
RightForeArm  30.8455 69.2736 27.7712
RightHand  -0.648883 6.34057 -6.74231
LeftUpLeg  5.77171 4.63125 5.04419
LeftLeg  -0.888367 33.6501 -2.31432
LeftFoot  -2.25579 0.53907 -6.60869
LeftToes  4.76866e-008 1.46233e-008 1.30548e-009
60
root  -2.41871 40.9171 -0.323939 178.664 -65.3092 -177.744
RightUpLeg  -0.341607 0.910054 0.961202
RightLeg  -0.344679 1.83181 0.175312
RightFoot  0.280338 -0.299136 3.00837
RightToes  -3.13006e-008 1.75238e-005 3.56266e-009
Spine  -13.0044 -2.42991 5.76793
Spine1  15.1985 -2.1117 -4.47142
HEad  6.47553 -4.31335 -17.7495
LeftShoulder1  1.51465 -6.31206 -7.91905
LeftArm  -39.444 -58.2433 -34.348
LeftForeArm  30.5869 -66.9663 -24.0507
LeftHand  -0.00378194 -3.06701 0.306786
RightShoulder  0.674653 2.51168 3.19781
RightArm  -52.1948 51.4445 13.8766
RightForeArm  33.2314 70.4932 29.7488
RightHand  -0.768737 6.17794 -8.02672
LeftUpLeg  5.81818 4.16622 4.73927
LeftLeg  -2.06685 33.8443 -2.63156
LeftFoot  -1.78607 0.569007 -6.67704
LeftToes  4.76866e-008 1.46233e-008 1.30548e-009
61
root  -2.46736 40.9257 -0.366697 179.154 -65.6434 -177.838
RightUpLeg  -0.519851 0.848279 0.890066
RightLeg  -0.647452 1.505 0.267733
RightFoot  0.333176 -0.291783 2.90747
RightToes  -3.13006e-008 1.75238e-005 3.56266e-009
Spine  -13.1615 -2.35356 6.006
Spine1  15.2524 -1.94705 -4.88499
HEad  6.32621 -4.53562 -17.2389
LeftShoulder1  1.28737 -4.94096 -7.70823
LeftArm  -47.4133 -55.0205 -25.2492
LeftForeArm  33.457 -69.6707 -28.0534
LeftHand  -0.0548227 -1.94459 1.02257
RightShoulder  0.492244 0.972302 2.9274
RightArm  -59.6587 48.1251 8.28952
RightForeArm  36.0972 71.3253 31.0724
RightHand  -0.662232 6.04656 -7.03092
LeftUpLeg  5.79797 3.89444 4.5835
LeftLeg  -3.034 33.8031 -2.9825
LeftFoot  -1.35653 0.575417 -6.49117
LeftToes  4.76866e-008 1.46233e-008 1.30548e-009
62
root  -2.52308 40.9321 -0.436775 179.358 -66.1629 -177.775
RightUpLeg  -0.541268 0.816786 0.912211
RightLeg  -0.836192 1.06348 0.352352
RightFoot  0.318791 -0.286709 2.85688
RightToes  -3.13006e-008 1.75238e-005 3.56266e-009
Spine  -12.6017 -2.46495 5.57741
Spine1  14.1323 -2.14859 -4.4316
HEad  6.53974 -4.47403 -17.046
LeftShoulder1  1.15594 -3.86689 -8.1483
LeftArm  -50.668 -49.2941 -21.9241
LeftForeArm  38.2449 -72.6318 -34.0183
LeftHand  -0.0301693 -1.83251 0.647906
RightShoulder  0.388504 0.00215744 3.02869
RightArm  -63.0072 43.4152 6.61238
RightForeArm  38.5963 72.6348 33.9957
RightHand  -0.58201 5.70364 -6.40367
LeftUpLeg  5.85105 3.72726 4.58134
LeftLeg  -3.79069 33.4877 -3.22276
LeftFoot  -1.03902 0.581953 -6.38246
LeftToes  4.76866e-008 1.46233e-008 1.30548e-009
